<?xml version="1.0" standalone="no"?>
<!DOCTYPE svg PUBLIC "-//W3C//DTD SVG 20010904//EN"
 "http://www.w3.org/TR/2001/REC-SVG-20010904/DTD/svg10.dtd">
<svg version="1.0" xmlns="http://www.w3.org/2000/svg"
 width="378.000000pt" height="607.000000pt" viewBox="0 0 378.000000 607.000000"
 preserveAspectRatio="xMidYMid meet">

<g transform="translate(0.000000,607.000000) scale(0.100000,-0.100000)"
fill="#000000" stroke="none">
<path d="M0 3035 l0 -3035 1890 0 1890 0 0 3035 0 3035 -1890 0 -1890 0 0
-3035z m1688 2288 c6 -16 30 -100 53 -188 44 -167 54 -192 73 -176 6 5 28 7
49 4 l37 -5 0 166 c0 135 3 166 14 166 23 0 26 -24 26 -189 0 -154 1 -158 24
-178 13 -12 27 -19 30 -16 3 4 6 1 6 -5 0 -7 7 -12 16 -12 8 0 12 -4 9 -10 -3
-5 -2 -10 4 -10 6 0 15 17 20 38 97 375 102 392 121 392 16 0 11 -63 -9 -131
-39 -127 -84 -294 -83 -312 0 -10 -8 -23 -19 -30 -10 -6 -19 -15 -19 -20 0 -4
12 0 26 10 25 16 27 16 40 -2 13 -17 12 -20 -8 -31 -28 -15 -35 -10 -17 12 13
16 12 16 -7 4 -14 -8 -21 -22 -19 -36 2 -22 1 -22 -20 -6 -12 9 -20 24 -18 33
5 16 -25 41 -63 53 -19 6 -21 3 -16 -20 4 -21 1 -25 -14 -22 -12 2 -21 14 -24
33 -4 25 -10 31 -37 33 -19 2 -39 12 -48 25 -8 11 -17 18 -21 15 -3 -4 4 -16
15 -27 29 -29 26 -47 -14 -69 -19 -11 -18 -11 7 -12 20 0 27 5 30 23 3 25 34
31 32 5 -1 -10 3 -16 9 -15 12 2 37 -41 37 -65 0 -12 8 -18 25 -18 22 0 30 -9
26 -32 0 -5 6 -8 15 -8 8 0 12 5 9 10 -9 15 4 12 20 -4 8 -7 12 -16 9 -19 -3
-3 10 -11 28 -17 22 -8 34 -20 35 -32 2 -19 1 -19 -11 -3 -11 15 -13 15 -25 2
-10 -13 -9 -17 6 -26 10 -6 14 -10 8 -10 -5 0 -25 13 -44 29 -19 16 -38 27
-43 24 -4 -3 -8 4 -8 16 0 19 -1 20 -16 6 -8 -9 -25 -16 -38 -16 -26 0 -51
-18 -60 -44 -5 -15 -4 -17 8 -7 13 11 33 10 89 -6 9 -2 24 -20 32 -39 9 -23
21 -34 35 -34 55 0 105 -98 99 -195 -2 -23 1 -46 5 -53 4 -6 3 -28 -3 -47 -5
-19 -7 -35 -5 -35 2 0 -5 -18 -16 -40 -41 -79 -158 -116 -244 -75 -45 21 -124
108 -161 176 -32 60 -37 119 -11 148 11 12 16 27 12 37 -5 14 -4 15 9 4 11
-10 15 -10 15 0 0 6 -9 14 -20 17 -21 6 -28 23 -9 23 5 0 15 14 20 30 6 17 17
30 25 30 8 0 29 7 46 16 l32 16 -33 14 c-30 13 -33 17 -29 49 3 24 -1 36 -11
40 -9 4 -17 1 -19 -4 -2 -6 -9 -11 -15 -11 -28 -1 -38 -16 -27 -44 9 -24 13
-26 26 -16 11 10 18 10 26 2 8 -8 0 -22 -32 -54 -48 -48 -93 -115 -86 -126 3
-4 -10 -9 -27 -10 -26 -1 -29 0 -14 9 21 12 22 32 2 49 -12 10 -15 10 -16 -1
-1 -8 -3 -25 -4 -39 -2 -14 2 -31 7 -37 14 -18 2 -44 -17 -37 -12 5 -14 0 -9
-27 8 -42 13 -47 24 -29 6 8 10 11 10 5 0 -5 3 -21 7 -34 4 -17 3 -22 -5 -17
-7 4 -12 2 -12 -4 0 -6 -5 -8 -12 -4 -8 5 -9 2 -5 -9 5 -13 1 -17 -18 -17 -13
0 -26 4 -29 9 -4 5 -45 -2 -94 -15 -315 -89 -352 -98 -364 -86 -8 8 -8 15 -2
21 8 9 234 72 387 107 l67 16 0 44 0 44 -247 2 c-213 3 -248 5 -248 18 0 13
35 15 248 18 l247 2 0 31 c0 22 4 28 13 23 8 -5 7 0 -3 15 -12 18 -49 31 -210
72 -241 61 -260 67 -260 85 0 21 42 17 160 -16 124 -35 121 -35 113 -12 -6 15
-5 15 10 3 9 -7 15 -17 12 -21 -7 -12 27 -21 86 -25 27 -2 55 -10 64 -19 21
-20 29 -20 21 0 -4 12 -1 14 14 10 11 -3 29 -8 39 -11 20 -6 71 38 71 62 0 6
9 15 20 18 22 7 26 20 9 30 -5 4 -8 12 -6 18 7 19 -13 49 -28 43 -8 -3 -17 -1
-20 5 -4 5 -11 7 -16 4 -9 -6 -13 8 -10 34 2 8 -2 10 -9 6 -7 -4 -21 3 -34 16
-11 14 -18 20 -13 15 15 -21 6 -28 -11 -9 -15 19 -20 19 -37 7 -14 -10 -15
-14 -4 -14 9 -1 6 -8 -10 -21 -24 -20 -24 -20 -3 -25 11 -3 23 -13 26 -21 3
-8 1 -11 -5 -8 -5 4 -21 -1 -36 -10 -22 -15 -25 -22 -20 -53 5 -32 4 -35 -7
-20 -7 10 -17 14 -21 10 -5 -4 -5 1 -2 11 5 12 3 16 -5 11 -7 -5 -9 1 -6 19 4
18 1 24 -9 20 -7 -3 -10 -10 -6 -16 3 -6 1 -7 -5 -3 -6 4 -9 13 -5 21 3 8 0
15 -7 15 -7 0 -10 7 -6 18 5 14 4 14 -9 -2 -10 -14 -12 -23 -4 -32 7 -8 7 -14
-1 -19 -6 -4 -9 -13 -6 -21 8 -21 -2 -17 -14 7 -7 11 -13 36 -15 56 -2 19 -5
36 -7 37 -1 2 -39 24 -83 48 -43 25 -84 52 -89 61 -22 34 9 30 86 -11 l81 -44
22 28 c22 27 22 27 90 16 38 -6 72 -17 76 -24 7 -10 9 -10 9 1 0 8 -48 63
-107 123 -60 60 -110 110 -111 113 -2 2 0 11 6 21 8 14 30 -4 144 -121 l135
-137 25 25 c14 14 28 41 31 61 5 31 -4 51 -74 168 -76 128 -89 160 -70 173 12
7 33 -24 101 -145 29 -52 60 -104 68 -115 14 -19 14 -19 9 3 -4 18 -2 22 9 18
19 -7 18 12 -2 32 -13 12 -14 17 -4 20 7 3 19 -4 27 -14 8 -10 19 -19 26 -19
7 0 22 -6 35 -13 30 -17 30 -15 -18 158 -22 80 -40 153 -40 162 0 28 26 21 38
-9z m732 -142 c0 -9 -58 -115 -130 -236 -71 -121 -130 -226 -130 -233 0 -10
20 -49 38 -72 2 -3 88 83 191 189 174 180 211 209 211 167 0 -7 -90 -101 -200
-210 -116 -115 -200 -206 -200 -216 0 -24 -18 -36 -33 -21 -8 8 -7 11 3 11 13
0 13 2 0 10 -8 5 -10 10 -3 10 6 0 9 9 6 21 -6 21 -7 21 -20 4 -12 -18 -13
-17 -13 8 0 15 -6 27 -13 27 -7 0 -18 13 -24 29 -9 24 -8 29 3 24 17 -6 17 -1
3 31 -7 14 -16 23 -21 19 -6 -3 -5 4 1 16 13 24 44 29 35 6 -4 -10 -2 -13 7
-10 8 3 59 87 114 187 55 100 111 198 124 218 24 38 51 49 51 21z m335 -397
c-15 -15 -284 -170 -457 -263 -100 -54 -144 -56 -60 -3 68 43 441 266 477 285
36 19 64 5 40 -19z m-1225 -44 c0 -5 -4 -10 -10 -10 -5 0 -10 5 -10 10 0 6 5
10 10 10 6 0 10 -4 10 -10z m200 -97 c0 -23 -5 -28 -24 -28 -15 0 -22 5 -19
13 3 6 11 12 19 12 8 0 13 3 13 8 -2 12 1 22 6 22 3 0 5 -12 5 -27z m-185 -40
c-17 -40 -25 -52 -25 -36 0 12 30 73 36 73 2 0 -3 -17 -11 -37z m1303 -45 c-6
-18 -46 -30 -338 -104 -140 -36 -256 -67 -259 -69 -2 -3 4 -16 13 -30 l16 -25
300 0 c254 0 300 -2 300 -14 0 -8 -10 -18 -22 -22 -12 -3 -144 -5 -294 -3
l-272 4 -22 33 c-13 17 -30 32 -39 32 -14 0 -14 2 -1 10 12 7 12 12 2 22 -10
10 -15 10 -23 -2 -8 -12 -9 -11 -7 5 2 13 12 20 28 21 14 1 120 29 235 62 288
83 315 90 353 91 23 1 32 -3 30 -11z m-689 -147 c1 -48 -5 -36 -13 24 -4 34
-3 43 3 30 5 -11 10 -35 10 -54z m-479 9 c0 -5 -4 -10 -10 -10 -5 0 -10 5 -10
10 0 6 5 10 10 10 6 0 10 -4 10 -10z m502 -159 c-4 -10 -1 -12 9 -6 12 8 12 6
0 -8 -7 -9 -17 -15 -21 -12 -5 3 -10 -3 -13 -12 -2 -10 -4 6 -4 34 1 49 2 52
17 35 10 -9 15 -23 12 -31z m-525 -46 c6 -14 7 -23 2 -19 -13 8 -31 44 -22 44
4 0 13 -11 20 -25z m912 -60 c132 -35 245 -66 251 -70 5 -3 10 -13 10 -22 0
-12 -7 -14 -32 -9 -67 13 -483 130 -495 139 -9 7 -10 14 -2 29 8 15 13 17 19
8 4 -7 116 -41 249 -75z m-954 34 c-4 -5 -13 -9 -20 -9 -8 0 -12 -6 -9 -14 4
-9 -24 -31 -86 -66 -50 -29 -102 -64 -116 -79 -35 -38 -32 -91 6 -71 11 6 25
3 44 -9 l27 -18 -25 -5 c-15 -3 -26 -1 -26 6 0 7 -3 7 -8 -1 -7 -11 -43 -16
-252 -38 -77 -8 -118 -13 -177 -20 -42 -5 -63 -4 -63 3 0 6 26 14 58 17 106
12 145 27 153 59 9 31 50 96 62 96 4 0 7 -7 7 -15 0 -17 45 -21 55 -5 3 6 19
10 34 10 15 0 46 13 68 29 23 16 43 28 45 26 9 -9 174 93 183 113 7 16 13 18
27 11 10 -6 16 -14 13 -20z m561 -16 c-7 -16 17 -57 27 -46 4 3 14 -11 23 -32
14 -33 14 -45 3 -80 -7 -22 -12 -44 -10 -49 1 -5 -4 -13 -11 -17 -18 -12 -48
-11 -48 1 0 6 7 10 16 10 24 0 11 25 -16 28 -19 3 -22 0 -17 -18 4 -17 2 -20
-14 -15 -18 6 -79 -22 -79 -36 0 -4 -3 -14 -6 -23 -7 -18 68 -71 90 -63 21 8
39 -18 28 -40 -5 -10 -7 -23 -5 -29 2 -7 -7 -21 -21 -31 -15 -12 -21 -24 -16
-29 15 -16 -16 -45 -50 -46 -17 -1 -28 -4 -23 -7 4 -3 14 -14 22 -24 12 -15
12 -17 -4 -11 -13 5 -16 4 -11 -4 5 -8 1 -10 -11 -5 -15 5 -16 3 -5 -8 6 -7
12 -18 12 -23 0 -6 -5 -4 -10 4 -7 11 -10 7 -10 -18 0 -30 1 -32 16 -18 19 20
31 21 15 2 -15 -17 0 -29 25 -19 11 4 15 3 11 -4 -4 -6 0 -13 8 -17 21 -8 19
-24 -6 -31 -12 -4 -27 -1 -37 8 -9 8 -42 27 -72 42 -30 15 -57 31 -60 35 -3 4
-17 10 -31 13 -22 6 -28 2 -38 -21 l-12 -27 19 23 c17 22 18 22 37 5 11 -10
59 -38 107 -61 47 -24 101 -56 120 -72 18 -16 37 -30 42 -30 5 0 24 -12 43
-26 19 -14 37 -24 39 -21 11 10 -22 50 -66 81 -30 21 -46 39 -48 56 -1 19 0
21 7 10 9 -12 11 -12 17 4 5 13 13 16 30 12 17 -5 24 -2 24 8 0 10 -7 12 -22
9 -21 -6 -21 -4 4 16 24 19 26 25 16 46 -9 19 -7 30 7 52 58 91 132 132 229
124 16 -1 18 -7 12 -58 -8 -64 -52 -193 -67 -193 -5 0 -9 -7 -9 -16 0 -8 5
-12 10 -9 6 3 10 1 10 -4 0 -11 -15 -15 -34 -12 -5 1 -4 -4 2 -12 10 -11 9
-17 -3 -27 -18 -15 -20 -71 -2 -90 6 -8 -1 -4 -17 10 -16 14 -26 20 -22 13 3
-6 2 -14 -3 -17 -5 -4 -15 -23 -22 -44 -6 -20 -25 -52 -40 -71 -15 -19 -26
-38 -24 -42 3 -4 -6 -14 -19 -22 -21 -14 -25 -14 -52 4 -16 10 -59 31 -96 45
-37 14 -84 39 -105 55 -60 47 -193 182 -193 196 0 14 -10 16 -34 7 -13 -5 -12
-9 9 -26 14 -11 25 -25 25 -31 0 -7 19 -27 43 -46 23 -19 60 -55 81 -81 21
-26 44 -47 51 -47 14 0 74 -43 76 -55 2 -9 5 -25 9 -35 1 -5 2 -11 1 -15 -2
-13 19 -9 25 5 6 16 53 15 63 -2 4 -6 15 -9 23 -6 9 4 19 1 24 -6 4 -7 3 -10
-4 -5 -6 3 -14 1 -18 -5 -3 -6 -1 -15 6 -19 10 -6 7 -11 -9 -21 -11 -8 -21
-20 -21 -27 0 -7 5 -10 10 -7 6 3 10 0 11 -7 0 -7 2 -23 3 -34 2 -19 0 -21
-20 -12 -13 6 -21 15 -18 20 13 21 -24 35 -89 34 -37 0 -67 -3 -67 -7 0 -6 17
-9 68 -9 17 0 32 -4 32 -9 0 -14 -26 -31 -35 -23 -5 4 -5 2 -1 -5 4 -7 14 -9
23 -6 10 4 14 2 10 -4 -4 -6 0 -18 8 -26 16 -16 21 -57 7 -57 -5 0 -9 -6 -10
-12 -1 -12 -7 -50 -11 -70 0 -5 -8 -8 -16 -8 -8 0 -15 -5 -15 -11 0 -5 5 -7
10 -4 6 3 10 2 10 -4 0 -5 -6 -12 -12 -14 -9 -4 -8 -6 3 -6 8 -1 21 5 29 12 8
6 7 3 -3 -9 -22 -27 -22 -48 0 -40 10 4 14 3 9 -1 -4 -4 -18 -8 -29 -8 -13 0
-21 -5 -19 -14 1 -7 -5 -20 -15 -28 -17 -13 -16 -14 6 -7 16 4 21 3 17 -5 -4
-6 -2 -11 3 -11 6 0 11 -9 11 -21 0 -11 -5 -17 -10 -14 -6 4 -8 11 -5 16 4 5
1 9 -4 9 -6 0 -11 -7 -11 -16 0 -8 -4 -12 -10 -9 -5 3 -10 1 -10 -5 0 -7 7 -9
16 -6 11 4 15 2 11 -8 -3 -7 0 -19 6 -26 10 -10 8 -12 -7 -6 -15 5 -17 2 -13
-15 4 -15 2 -19 -9 -15 -8 3 -14 -1 -14 -8 0 -8 6 -17 13 -19 7 -3 5 -6 -5 -6
-13 -1 -18 7 -18 29 0 24 -3 28 -17 23 -15 -6 -16 -4 -5 9 9 12 10 18 2 23 -7
4 -10 16 -7 26 3 12 0 19 -9 19 -8 0 -11 -6 -7 -17 4 -11 3 -14 -5 -9 -18 11
-14 36 5 36 14 0 14 2 -2 20 -20 22 -8 28 15 8 12 -11 12 -10 1 4 -10 14 -9
20 9 38 14 14 19 28 15 41 -4 11 -2 19 4 19 6 0 11 -8 11 -17 1 -17 1 -17 11
0 11 20 -4 48 -25 46 -6 0 -6 -3 2 -6 10 -4 9 -8 -4 -18 -9 -6 -18 -23 -19
-35 -2 -33 -21 -36 -27 -5 -4 18 -1 25 11 25 13 0 14 2 2 9 -8 5 -19 7 -26 5
-15 -6 -39 22 -31 35 3 5 -1 11 -9 15 -8 3 -15 11 -15 17 0 7 10 5 27 -6 19
-13 28 -14 31 -6 2 6 8 8 13 5 6 -3 16 -1 24 6 8 6 22 11 32 10 30 -4 39 0 24
9 -10 6 -27 5 -48 -4 -18 -8 -33 -10 -33 -5 0 5 16 14 36 19 41 11 80 -1 67
-22 -4 -7 1 -5 12 3 16 13 16 15 2 18 -10 2 -17 8 -17 13 0 19 -75 4 -98 -19
-25 -26 -62 -22 -63 6 0 12 -3 11 -9 -5 -5 -13 -15 -23 -21 -23 -8 0 -8 4 -1
13 7 8 7 18 2 27 -8 13 -12 11 -25 -7 -17 -24 -40 -30 -49 -14 -4 5 2 7 13 4
19 -5 36 21 25 39 -4 6 0 14 7 19 11 7 12 9 1 9 -8 0 -16 -9 -19 -20 -3 -13
-14 -20 -29 -20 -25 0 -45 21 -25 28 7 2 9 8 3 15 -5 7 -7 26 -5 44 l5 31 79
-2 c43 -2 79 1 79 6 0 5 4 7 9 4 10 -7 41 3 41 13 0 3 -44 5 -98 4 -115 -2
-122 0 -115 26 3 12 9 19 13 16 13 -8 15 10 12 70 -4 59 -12 67 -39 35 -21
-24 -33 -26 -33 -4 0 8 4 13 8 10 4 -2 18 11 31 29 19 28 21 39 14 62 -12 36
-48 39 -48 4 0 -13 -6 -26 -14 -29 -10 -3 -11 2 -6 19 l6 24 -20 -25 c-23 -28
-26 -40 -10 -40 5 0 7 -5 3 -12 -4 -6 -3 -8 4 -4 18 11 27 -36 8 -49 -21 -16
-20 -22 2 -28 13 -4 11 -5 -5 -6 -13 0 -23 -6 -23 -12 0 -5 5 -7 10 -4 6 3 10
1 10 -4 0 -6 -4 -11 -10 -11 -5 0 -13 0 -17 0 -9 0 -11 14 -18 130 -12 195
-13 184 15 185 14 0 31 4 38 8 7 5 12 4 12 -3 0 -6 5 -8 11 -4 6 3 15 0 21 -7
6 -10 8 -7 7 11 -3 33 10 60 27 60 12 0 12 4 2 19 -7 11 -15 18 -18 16 -4 -2
-7 2 -7 10 0 18 14 20 20 3 2 -7 8 -10 12 -6 13 13 -7 30 -31 25 -16 -3 -24 0
-24 10 0 11 -4 11 -22 2 -18 -10 -24 -8 -35 7 -11 16 -11 19 1 24 10 4 5 15
-21 45 -32 36 -34 37 -20 9 16 -31 13 -114 -4 -114 -5 0 -9 -8 -9 -17 0 -14
-3 -13 -16 5 -9 13 -17 29 -18 35 -2 7 -7 21 -12 32 -5 11 -9 59 -9 107 0 49
-3 88 -7 88 -7 0 -13 -92 -11 -155 6 -173 13 -320 17 -360 5 -44 5 -46 -4 -15
-15 57 -32 228 -32 333 -1 53 -5 97 -10 97 -5 0 -8 -6 -7 -12 4 -35 -2 -88
-11 -88 -5 0 -11 39 -13 88 -2 48 -3 16 -3 -70 1 -138 3 -159 19 -170 13 -10
19 -31 22 -81 3 -42 1 -65 -5 -62 -6 3 -10 15 -10 26 0 11 -3 18 -7 16 -5 -3
-7 16 -6 41 1 44 1 44 -6 12 -6 -28 -9 -16 -15 65 -5 54 -12 122 -16 150 l-8
50 -1 -52 c0 -29 -5 -53 -11 -53 -6 0 -8 -32 -5 -82 l5 -83 -19 63 c-18 63
-31 88 -31 61 0 -8 11 -64 25 -124 36 -153 39 -172 27 -179 -6 -3 -14 26 -21
72 -6 42 -23 118 -38 169 l-27 91 -25 -19 c-16 -13 -25 -31 -26 -52 -3 -45
-31 -157 -47 -189 -16 -29 -56 -65 -106 -94 -40 -23 -61 -13 -79 37 -28 80
-11 205 43 307 8 15 14 37 14 49 0 13 9 28 20 35 13 9 20 24 20 45 0 22 5 33
14 33 25 0 25 13 4 89 -11 40 -17 75 -15 78 3 2 23 7 44 10 37 5 40 4 55 -33
9 -22 19 -51 22 -66 9 -38 26 -35 28 5 1 17 2 41 2 51 1 10 13 23 26 28 14 5
28 16 33 24 4 8 17 14 29 14 15 0 18 -4 13 -17 -4 -10 -9 -29 -12 -43 -2 -14
3 -7 11 15 9 22 16 41 16 42 0 1 16 5 35 9 26 5 35 11 35 26 0 23 24 50 36 40
4 -4 -2 6 -14 21 -20 27 -20 30 -5 53 8 13 23 24 34 24 11 0 22 12 30 35 7 19
17 35 22 35 5 0 6 -7 3 -15 -3 -8 -8 -21 -11 -28 -5 -12 101 -115 109 -106 2
2 8 13 15 24 11 19 12 19 6 -3 -6 -21 -4 -22 22 -16 15 4 36 11 47 16 13 7 16
7 12 -1 -4 -6 -3 -11 1 -11 5 0 14 13 20 30 12 32 13 32 93 8 50 -15 65 -42
28 -51 -24 -6 -148 -20 -183 -21 -21 0 -56 -26 -35 -26 7 0 10 -13 9 -33 -2
-18 0 -37 3 -43 4 -5 10 -35 13 -65 4 -30 11 -69 17 -87 8 -27 7 -37 -8 -55
-16 -18 -14 -18 11 3 16 14 31 28 33 33 2 4 8 5 13 2 5 -4 6 1 3 9 -3 9 -14
16 -24 16 -13 0 -19 10 -22 43 -9 77 -4 170 10 175 6 2 12 -1 12 -8 0 -6 -4
-8 -10 -5 -5 3 -10 1 -10 -4 0 -14 13 -14 28 1 9 9 12 8 12 -6 0 -9 5 -14 10
-11 6 4 7 11 4 17 -4 7 -2 8 4 4 7 -4 12 -2 12 3 0 6 -6 11 -12 12 -34 2 56
19 118 23 40 2 77 7 83 10 6 4 15 5 20 2 11 -7 47 32 38 41 -4 3 -7 1 -7 -5 0
-19 -20 -14 -21 6 -1 15 -2 15 -6 -1 -3 -11 -11 -16 -19 -13 -8 3 -14 0 -14
-6 0 -6 -9 -1 -19 11 l-20 22 -4 -25 c-4 -25 -4 -25 -3 1 1 30 27 38 55 18 11
-8 13 -6 9 6 -5 12 0 14 24 11 19 -3 33 1 39 9 5 8 9 9 9 3 0 -7 9 -14 21 -17
14 -4 18 -10 14 -19 -6 -10 -4 -10 6 1 11 10 11 15 2 18 -7 3 -13 9 -13 14 0
18 44 59 64 59 18 1 19 2 6 13 -21 16 -43 67 -29 67 6 0 7 5 3 12 -5 7 -3 8 5
4 7 -5 10 -15 7 -23z m-476 -9 c0 -8 -4 -12 -10 -9 -5 3 -10 13 -10 21 0 8 5
12 10 9 6 -3 10 -13 10 -21z m507 -9 c0 -8 -4 -12 -9 -9 -5 3 -6 10 -3 15 9
13 12 11 12 -6z m-467 -56 c0 -16 -19 -29 -41 -29 -10 0 -13 53 -3 63 10 10
44 -17 44 -34z m655 -40 c39 -17 99 -50 135 -74 36 -23 102 -64 148 -91 76
-44 92 -61 75 -77 -14 -15 -155 74 -211 133 -33 34 -66 60 -78 60 -11 0 -29 7
-41 15 -11 8 -36 17 -54 19 -41 6 -99 24 -81 25 6 1 12 6 12 11 0 6 -12 8 -27
4 l-28 -6 25 21 c21 17 27 18 40 6 9 -8 47 -29 85 -46z m-645 1 c0 -5 -6 -10
-12 -10 -9 0 -8 -4 2 -10 12 -8 11 -10 -8 -10 -20 0 -21 3 -12 20 11 21 30 27
30 10z m27 -22 c-3 -8 -6 -5 -6 6 -1 11 2 17 5 13 3 -3 4 -12 1 -19z m-1039
-111 c6 0 12 -5 12 -11 0 -6 5 -3 11 6 5 10 16 15 25 11 11 -4 12 -8 3 -19
-10 -12 -9 -13 5 -8 9 3 16 1 16 -4 0 -6 -25 -19 -54 -28 -45 -14 -58 -15 -70
-4 -18 14 -21 40 -5 40 5 0 7 5 4 10 -4 6 -11 8 -16 5 -5 -4 -9 -1 -9 6 0 8
10 9 33 4 17 -4 38 -7 45 -8z m1507 -14 l-7 -28 26 24 c14 14 28 22 31 19 3
-2 -6 -15 -20 -28 -33 -31 -32 -47 1 -25 l26 17 -23 -34 c-13 -18 -33 -44 -45
-58 -12 -14 -30 -38 -40 -55 -13 -22 -6 -17 27 18 42 43 69 59 69 39 0 -4 -6
-14 -12 -22 -11 -12 -10 -12 5 0 10 7 16 19 13 27 -7 17 68 66 135 88 45 15
53 15 99 0 58 -19 74 -42 84 -121 5 -43 2 -60 -19 -105 -18 -39 -25 -72 -26
-119 -1 -75 -15 -191 -18 -145 -3 57 -14 105 -23 99 -15 -9 6 63 58 198 17 45
17 47 -2 73 -10 15 -23 35 -29 44 -14 22 -74 26 -120 7 -42 -18 -68 -21 -45
-6 8 5 10 10 4 10 -40 0 -162 -113 -190 -177 -7 -16 -13 -22 -13 -15 -1 7 6
26 14 42 9 17 12 30 7 30 -5 0 -20 -20 -33 -44 -28 -53 -36 -54 -14 -3 19 46
19 48 -2 41 -13 -4 -14 -3 -5 3 7 5 14 24 15 41 1 18 6 32 10 32 5 0 5 4 2 10
-3 5 1 20 9 32 9 12 16 31 16 41 0 11 4 15 12 11 6 -4 8 -3 4 4 -6 10 12 62
22 62 2 0 1 -12 -3 -27z m120 17 c-3 -5 -11 -10 -16 -10 -6 0 -7 5 -4 10 3 6
11 10 16 10 6 0 7 -4 4 -10z m-199 -15 c-11 -8 -16 -15 -11 -15 5 0 3 -6 -3
-12 -10 -10 -15 -10 -21 1 -7 11 -10 9 -16 -8 -7 -23 -20 -27 -31 -9 -4 7 -3
8 4 4 13 -8 16 5 5 20 -5 5 -4 6 0 3 5 -4 25 2 45 12 45 22 54 23 28 4z
m-1519 -1 c-3 -3 -12 -4 -19 -1 -8 3 -5 6 6 6 11 1 17 -2 13 -5z m220 -46 c-3
-8 -6 -5 -6 6 -1 11 2 17 5 13 3 -3 4 -12 1 -19z m-57 -10 c0 -19 -2 -20 -10
-8 -13 19 -13 30 0 30 6 0 10 -10 10 -22z m1360 12 c0 -5 -5 -10 -11 -10 -5 0
-7 5 -4 10 3 6 8 10 11 10 2 0 4 -4 4 -10z m-1385 -10 c7 -11 -49 -28 -82 -25
-13 1 -23 -3 -23 -8 0 -8 -4 -7 -11 0 -6 6 -18 9 -25 6 -8 -3 -14 -1 -14 5 0
13 42 23 54 13 6 -5 26 -3 46 4 46 16 48 17 55 5z m-98 -166 c2 -54 4 -120 6
-146 3 -36 1 -48 -9 -48 -8 0 -14 -4 -14 -10 0 -5 -3 -10 -7 -10 -6 0 -8 277
-3 318 0 2 5 2 12 0 8 -3 13 -37 15 -104z m1413 -115 c0 -5 -7 -9 -15 -9 -15
0 -20 12 -9 23 8 8 24 -1 24 -14z m-630 -9 c0 -5 -4 -10 -10 -10 -5 0 -10 5
-10 10 0 6 5 10 10 10 6 0 10 -4 10 -10z m740 -10 c0 -5 -4 -10 -10 -10 -5 0
-10 5 -10 10 0 6 5 10 10 10 6 0 10 -4 10 -10z m-544 -96 c-15 -16 -20 -9 -22
26 l-2 29 18 -21 c13 -16 14 -25 6 -34z m-356 -49 c0 -52 -3 -95 -7 -95 -5 0
-8 43 -8 95 0 52 3 95 8 95 4 0 7 -43 7 -95z m160 59 c0 -8 -4 -12 -10 -9 -5
3 -10 10 -10 16 0 5 5 9 10 9 6 0 10 -7 10 -16z m-53 -56 c-3 -7 -5 -2 -5 12
0 14 2 19 5 13 2 -7 2 -19 0 -25z m-90 -10 c-3 -8 -6 -5 -6 6 -1 11 2 17 5 13
3 -3 4 -12 1 -19z m23 -73 c4 37 38 -149 44 -235 l6 -85 -15 45 c-9 25 -21 72
-28 105 l-13 60 -7 -75 c-5 -52 -2 -97 8 -145 8 -38 15 -93 15 -121 0 -35 8
-66 25 -98 30 -56 32 -70 5 -36 -11 14 -20 21 -20 15 0 -16 37 -68 62 -87 20
-15 20 -18 5 -18 -14 0 -16 -4 -7 -19 15 -29 -5 -36 -25 -9 l-17 23 7 -25 c4
-14 4 -22 1 -19 -21 20 -56 186 -57 268 -1 36 -7 82 -15 103 -10 29 -11 58 -3
130 6 51 10 127 11 168 0 50 3 68 8 55 l9 -20 1 20z m1121 1 c10 6 12 -39 3
-86 -10 -47 -24 -17 -23 50 0 30 3 49 6 42 2 -6 9 -10 14 -6z m-1014 -48 c-3
-7 -5 -2 -5 12 0 14 2 19 5 13 2 -7 2 -19 0 -25z m906 -23 c-3 -9 -8 -14 -10
-11 -3 3 -2 9 2 15 9 16 15 13 8 -4z m-826 -82 c-3 -10 -5 -4 -5 12 0 17 2 24
5 18 2 -7 2 -21 0 -30z m193 -13 c0 -5 -5 -10 -11 -10 -5 0 -7 5 -4 10 3 6 8
10 11 10 2 0 4 -4 4 -10z m573 -10 c-3 -11 -9 -20 -14 -20 -5 0 -9 9 -9 20 0
11 6 20 14 20 9 0 12 -7 9 -20z m-756 -22 c-3 -8 -6 -5 -6 6 -1 11 2 17 5 13
3 -3 4 -12 1 -19z m163 6 c0 -2 -7 -4 -15 -4 -8 0 -15 4 -15 10 0 5 7 7 15 4
8 -4 15 -8 15 -10z m8 -27 c15 6 15 5 3 -10 -16 -20 -41 -22 -41 -4 0 18 14
31 18 18 2 -5 11 -7 20 -4z m-161 -19 c-3 -8 -6 -5 -6 6 -1 11 2 17 5 13 3 -3
4 -12 1 -19z m122 -29 c20 -7 31 -18 31 -30 0 -29 -22 -70 -36 -65 -19 7 -35
-15 -22 -32 9 -10 8 -16 -3 -22 -9 -6 -15 -5 -17 3 -2 7 -6 19 -9 27 -13 34
-12 50 2 50 8 0 15 4 15 9 0 5 -8 8 -17 7 -22 -1 -23 23 -3 46 19 20 20 20 59
7z m556 -45 c-15 -13 -24 -28 -20 -33 10 -17 -12 -21 -31 -5 -10 9 -12 12 -4
8 12 -6 13 -5 4 7 -16 22 -11 53 10 57 11 3 16 0 11 -7 -3 -6 -12 -8 -18 -5
-7 4 -9 3 -4 -1 12 -14 49 -17 41 -3 -5 7 -3 8 6 3 10 -6 12 -4 6 10 -5 15 -4
16 9 5 13 -11 12 -15 -10 -36z m-140 -24 c-4 -21 16 -41 23 -22 4 14 22 6 22
-10 0 -6 -3 -8 -6 -5 -4 3 -16 2 -27 -4 -13 -7 -17 -7 -13 -1 3 6 2 13 -3 16
-5 4 -8 14 -6 24 5 22 4 22 9 22 3 0 3 -9 1 -20z m166 -23 c-10 -9 -11 -8 -5
6 3 10 9 15 12 12 3 -3 0 -11 -7 -18z m-547 -14 c-10 -40 -15 -42 -12 -5 1 18
6 32 10 32 5 0 5 -12 2 -27z m-103 -26 c-13 -13 -26 -3 -16 12 3 6 11 8 17 5
6 -4 6 -10 -1 -17z m693 -15 c3 -5 -1 -9 -9 -9 -8 0 -12 4 -9 9 3 4 7 8 9 8 2
0 6 -4 9 -8z m-689 -12 c-3 -5 -10 -10 -16 -10 -5 0 -9 5 -9 10 0 6 7 10 16
10 8 0 12 -4 9 -10z m-41 -16 c3 -8 2 -12 -4 -9 -6 3 -10 10 -10 16 0 14 7 11
14 -7z m586 -4 c0 -5 -7 -10 -15 -10 -8 0 -15 5 -15 10 0 6 7 10 15 10 8 0 15
-4 15 -10z m177 -6 c7 -7 13 -17 13 -23 0 -6 5 -11 11 -11 5 0 7 5 4 10 -3 6
-1 10 4 10 16 0 13 -20 -4 -26 -8 -3 -22 1 -30 10 -9 9 -20 16 -25 16 -4 0
-10 6 -13 13 -7 17 23 18 40 1z m-67 -9 c-7 -8 -16 -12 -21 -9 -5 3 -6 -1 -3
-9 3 -10 -4 -18 -23 -25 -15 -6 -22 -11 -15 -11 7 -1 10 -5 7 -11 -3 -5 -1
-10 5 -10 7 0 8 -6 0 -19 -11 -22 1 -65 22 -75 10 -5 10 -7 1 -12 -18 -8 -16
-25 2 -18 8 4 15 1 15 -5 0 -11 -62 -8 -102 5 -10 3 -18 0 -18 -6 0 -7 -8 -2
-19 11 -10 13 -16 30 -13 38 4 11 9 10 22 -7 12 -15 20 -18 28 -10 12 12 4 41
-9 32 -5 -3 -9 0 -9 7 0 6 -8 18 -17 25 -17 13 -17 13 0 14 18 0 25 20 7 20
-5 0 -10 5 -10 10 0 6 7 10 16 10 12 0 15 6 11 21 -4 16 -3 18 8 9 17 -14 34
-10 62 15 28 25 72 33 53 10z m-640 -15 c0 -5 -5 -10 -11 -10 -5 0 -7 5 -4 10
3 6 8 10 11 10 2 0 4 -4 4 -10z m660 -19 c0 -10 -7 -21 -15 -25 -9 -3 -15 0
-15 10 0 8 5 12 10 9 6 -3 10 1 10 9 0 9 2 16 5 16 3 0 5 -9 5 -19z m30 -7 c0
-8 -5 -12 -10 -9 -6 4 -8 11 -5 16 9 14 15 11 15 -7z m-667 -10 c-6 -16 -19
-18 -28 -4 -3 5 -13 6 -22 3 -10 -4 -14 -2 -10 4 3 5 20 10 36 11 22 0 28 -3
24 -14z m770 9 c-7 -2 -21 -2 -30 0 -10 3 -4 5 12 5 17 0 24 -2 18 -5z m-678
-13 c-3 -5 -11 -10 -16 -10 -6 0 -7 5 -4 10 3 6 11 10 16 10 6 0 7 -4 4 -10z
m-190 -20 c-3 -5 -11 -10 -16 -10 -6 0 -7 5 -4 10 3 6 11 10 16 10 6 0 7 -4 4
-10z m-95 -51 c11 -21 16 -39 11 -39 -12 0 -23 16 -37 57 -15 43 1 32 26 -18z
m907 29 c-3 -8 -6 -5 -6 6 -1 11 2 17 5 13 3 -3 4 -12 1 -19z m-1059 -27 c-2
-21 -9 -44 -17 -52 -12 -11 -13 -9 -7 12 3 13 9 36 12 52 9 39 15 33 12 -12z
m262 19 c13 -8 12 -12 -4 -27 -16 -15 -18 -16 -13 -2 3 9 0 22 -6 28 -13 13 2
14 23 1z m734 -11 c-3 -5 -10 -7 -15 -3 -5 3 -7 10 -3 15 3 5 10 7 15 3 5 -3
7 -10 3 -15z m-624 -69 c-5 -3 -5 -12 0 -20 11 -17 -35 -64 -55 -56 -8 3 -19
-2 -27 -11 -11 -14 -10 -16 14 -11 21 4 29 1 33 -13 7 -22 16 -24 34 -6 11 10
13 10 7 0 -4 -8 -1 -13 8 -13 12 0 14 7 10 30 -4 17 -1 36 5 44 8 10 9 16 1
21 -5 3 -10 16 -10 28 0 18 4 16 25 -16 14 -20 28 -37 31 -37 7 0 -15 38 -26
45 -6 3 -10 14 -9 23 0 11 2 12 6 4 2 -6 9 -10 14 -6 5 3 12 -2 15 -10 3 -9 9
-16 13 -16 12 0 9 30 -3 30 -14 1 12 15 43 25 20 6 23 4 18 -9 -4 -10 -3 -15
3 -11 6 4 10 -9 10 -30 0 -20 4 -34 9 -31 8 6 -1 -56 -13 -85 -4 -9 1 -22 13
-33 11 -10 18 -24 14 -30 -3 -6 -3 -8 2 -4 5 5 22 -2 39 -15 49 -36 89 -60 82
-49 -3 6 -2 13 4 17 5 3 10 -2 10 -13 0 -13 16 -26 50 -42 28 -13 50 -27 50
-31 0 -4 9 -5 20 -2 11 3 17 9 14 14 -3 5 -2 9 3 9 10 0 53 -51 53 -64 0 -6 7
-3 15 8 15 20 35 14 35 -10 0 -10 5 -12 13 -8 8 5 7 2 -2 -9 -8 -11 -21 -15
-32 -12 -11 4 -19 2 -19 -4 0 -6 -5 -11 -11 -11 -5 0 -8 4 -4 10 7 11 -16 50
-29 50 -4 0 -6 -9 -3 -20 3 -13 0 -20 -9 -20 -7 0 -11 6 -8 13 5 13 -22 44
-31 35 -2 -2 1 -21 7 -41 8 -26 17 -37 30 -37 11 0 16 -5 12 -11 -3 -6 -15 -9
-25 -6 -13 4 -19 0 -20 -11 -1 -14 -2 -14 -6 1 -3 10 -12 17 -21 15 -10 -2
-22 3 -29 12 -8 10 -12 11 -13 3 0 -7 -5 -13 -11 -13 -5 0 -8 4 -4 9 3 5 1 12
-5 16 -5 3 -10 -3 -10 -14 0 -12 -4 -21 -10 -21 -5 0 -10 11 -10 25 0 14 -4
25 -10 25 -5 0 -10 -7 -10 -15 0 -8 -4 -15 -10 -15 -12 0 -12 2 -1 33 9 23 7
25 -14 23 -21 -3 -22 -1 -13 26 16 46 1 45 -19 -1 -20 -46 -37 -55 -27 -15 5
19 4 25 -5 20 -6 -4 -9 -12 -6 -17 4 -5 1 -9 -5 -9 -6 0 -8 10 -4 25 4 15 2
25 -5 25 -6 0 -10 -5 -9 -12 2 -6 -8 -15 -22 -19 -14 -4 -21 -7 -16 -8 5 -1 3
-8 -4 -16 -7 -9 -19 -14 -27 -11 -7 3 -13 -1 -13 -10 0 -12 4 -12 20 -4 14 7
20 7 20 0 0 -5 -5 -10 -11 -10 -6 0 -8 -7 -5 -16 4 -11 1 -14 -13 -9 -10 3
-24 -1 -31 -10 -10 -12 -10 -15 1 -15 8 0 5 -6 -7 -15 -14 -11 -15 -15 -4 -14
35 3 51 -1 44 -13 -4 -7 3 -3 15 10 12 12 27 19 33 16 7 -4 8 -2 4 4 -4 7 -2
12 3 12 17 0 13 -30 -4 -36 -8 -4 -13 -10 -10 -14 11 -17 -17 -21 -40 -6 -33
22 -38 20 -24 -6 20 -37 28 -123 16 -178 -7 -31 -6 -32 6 -16 8 11 19 16 25
12 13 -8 14 -119 1 -153 l-10 -26 27 17 c14 10 27 16 29 14 2 -2 -4 -19 -14
-38 -9 -20 -16 -50 -14 -67 3 -24 -3 -40 -26 -65 -30 -34 -81 -50 -81 -25 0 7
-22 21 -50 31 -58 21 -109 73 -145 149 -29 59 -34 85 -51 256 -7 77 -7 70 2
142 4 34 2 70 -5 91 -8 24 -9 43 -2 62 7 17 7 26 0 26 -6 0 -6 7 1 21 6 11 10
35 9 52 -2 18 0 38 4 44 4 6 3 14 -3 18 -16 10 -12 22 10 28 13 3 18 10 14 21
-7 18 13 49 27 41 4 -3 16 6 25 20 9 13 21 22 27 18 6 -4 8 0 4 10 -4 10 -10
25 -13 35 -5 14 -4 15 5 2 9 -13 12 -12 17 8 8 26 19 28 33 5 9 -16 10 -15 11
7 l0 25 24 -30 c13 -16 20 -32 16 -35z m-384 -71 c-5 -34 -4 -49 4 -44 15 9
12 -17 -6 -53 -8 -18 -17 -50 -19 -72 -4 -40 -26 -81 -73 -132 -15 -16 -22
-33 -18 -43 3 -9 2 -14 -2 -11 -5 3 -21 -1 -36 -9 -31 -16 -56 -10 -57 14 0
11 -2 12 -6 3 -4 -10 -8 -9 -18 4 -11 16 -12 15 -10 -9 2 -15 -2 -30 -8 -34
-7 -3 -9 -3 -5 2 9 10 -19 65 -34 65 -6 0 -8 3 -4 7 4 5 35 6 67 5 97 -6 131
19 154 113 l6 29 -22 -19 -22 -20 13 25 c7 14 21 35 30 47 10 13 21 40 24 60
8 43 36 123 44 123 2 0 2 -23 -2 -51z m899 31 c4 -6 16 -8 28 -5 17 5 19 4 7
-4 -8 -5 -26 -7 -41 -4 -15 3 -30 0 -33 -6 -4 -6 0 -11 8 -11 9 0 16 -7 16
-16 0 -12 6 -15 22 -11 12 4 28 1 35 -5 15 -12 18 -48 3 -48 -5 0 -9 -6 -7
-12 1 -8 -7 -12 -20 -10 -13 2 -23 -2 -23 -8 0 -6 5 -8 10 -5 6 3 10 1 10 -4
0 -6 16 -11 36 -11 31 0 36 -3 31 -20 -3 -13 0 -20 9 -20 10 0 13 -7 8 -25 -4
-18 -2 -25 9 -25 15 0 32 -26 28 -45 -1 -5 6 -1 14 10 12 15 18 17 24 7 4 -7
22 -14 40 -14 20 -1 27 -4 20 -9 -7 -4 -18 -5 -24 -1 -5 3 -4 -2 4 -11 9 -11
10 -17 2 -17 -16 0 -13 -30 4 -36 23 -9 6 -26 -18 -18 -22 6 -22 6 -2 -9 17
-13 18 -17 5 -33 -12 -16 -12 -17 0 -6 21 18 32 15 20 -7 -6 -12 -26 -22 -50
-26 -22 -4 -40 -8 -40 -10 0 -2 4 -15 10 -30 7 -18 5 -45 -5 -93 -14 -65 -13
-67 8 -84 l22 -18 -27 0 c-25 0 -27 -3 -26 -40 0 -22 4 -43 9 -46 17 -10 9
-24 -14 -24 -19 0 -23 -6 -25 -35 -2 -24 2 -37 12 -41 14 -5 14 -9 0 -36 -8
-16 -14 -37 -12 -46 1 -9 -1 -23 -5 -30 -6 -8 0 -15 15 -21 26 -10 51 0 68 27
9 14 10 11 5 -13 -8 -39 -54 -87 -80 -83 -12 2 -19 9 -17 20 1 9 -6 19 -17 23
-11 3 -31 19 -44 35 -14 16 -28 26 -32 22 -5 -4 -5 -2 -2 4 3 6 0 22 -8 37 -7
15 -16 49 -19 75 -3 27 -10 62 -16 76 -10 28 -4 52 15 58 6 2 10 18 11 35 0
20 10 43 24 58 22 24 23 28 11 61 -12 35 -12 37 19 69 20 20 28 35 21 39 -6 4
-11 2 -11 -5 0 -12 -45 29 -45 41 0 3 -4 11 -9 19 -7 11 -5 13 7 8 10 -3 17
-3 17 1 0 4 9 8 20 8 11 0 20 -6 20 -13 0 -7 7 -13 15 -13 8 0 15 9 15 19 0
11 5 23 11 26 6 4 8 22 6 41 -3 19 -1 34 4 34 12 0 11 37 -1 45 -5 3 -10 0
-10 -8 0 -8 -7 -21 -16 -28 -14 -11 -18 -10 -30 6 -10 14 -14 15 -14 4 -1 -24
-30 22 -30 48 0 26 -3 27 -30 13 -17 -9 -18 -4 -20 83 -1 50 -2 103 -3 117 -1
17 3 25 15 25 9 0 20 4 24 8 10 10 22 9 29 -3z m-645 -6 c0 -8 -19 -13 -24 -6
-3 5 1 9 9 9 8 0 15 -2 15 -3z m770 -80 c12 -19 20 -37 18 -39 -2 -3 -15 13
-27 35 -28 50 -21 53 9 4z m-330 -94 c-18 -11 -24 -6 -16 16 5 14 9 15 19 5 9
-9 9 -14 -3 -21z m37 8 c-3 -8 -6 -5 -6 6 -1 11 2 17 5 13 3 -3 4 -12 1 -19z
m-72 3 c3 -5 1 -12 -5 -16 -5 -3 -10 1 -10 9 0 18 6 21 15 7z m375 -16 c0 -8
-2 -15 -4 -15 -2 0 -6 7 -10 15 -3 8 -1 15 4 15 6 0 10 -7 10 -15z m473 -111
c34 -11 52 -25 63 -46 9 -16 13 -32 11 -35 -3 -2 -8 5 -12 17 -6 18 -9 19 -23
8 -10 -7 -13 -8 -9 -3 5 6 -6 14 -29 21 -23 6 -40 19 -45 32 -5 12 -7 22 -5
22 1 0 24 -7 49 -16z m-868 -64 c3 -5 1 -10 -4 -10 -6 0 -11 5 -11 10 0 6 2
10 4 10 3 0 8 -4 11 -10z m-101 -27 c-9 -39 -15 -47 -24 -32 -5 7 -2 22 7 36
20 30 25 29 17 -4z m1026 7 c0 -5 -2 -10 -4 -10 -3 0 -8 5 -11 10 -3 6 -1 10
4 10 6 0 11 -4 11 -10z m14 -35 c12 -7 20 -19 18 -31 -1 -10 -4 -29 -5 -41 -1
-11 -6 -19 -10 -16 -5 3 -6 11 -3 19 8 21 -3 17 -25 -8 l-20 -23 11 22 c9 19
8 22 -5 17 -8 -4 -15 -1 -15 5 0 6 4 11 8 11 5 0 9 7 9 15 0 8 -4 12 -9 9 -4
-3 -9 1 -9 8 -1 7 -5 0 -9 -17 -7 -28 -8 -28 -9 12 -1 43 13 59 38 40 7 -6 23
-16 35 -22z m-1074 -16 c0 -5 -7 -9 -15 -9 -9 0 -12 6 -9 15 6 15 24 11 24 -6z
m-720 1 c0 -5 -2 -10 -4 -10 -3 0 -8 5 -11 10 -3 6 -1 10 4 10 6 0 11 -4 11
-10z m995 0 c3 -5 1 -10 -4 -10 -6 0 -11 5 -11 10 0 6 2 10 4 10 3 0 8 -4 11
-10z m85 -11 c0 -6 -4 -7 -10 -4 -5 3 -10 11 -10 16 0 6 5 7 10 4 6 -3 10 -11
10 -16z m787 -29 c2 -26 0 -31 -7 -20 -5 8 -10 11 -10 7 0 -4 10 -21 21 -36
12 -16 19 -35 16 -43 -3 -8 -8 -3 -15 13 -6 15 -15 28 -20 30 -5 2 -12 23 -16
47 -6 38 -4 43 11 40 12 -2 18 -14 20 -38z m-809 12 c9 -9 18 -32 20 -50 2
-29 0 -33 -18 -27 -15 5 -20 2 -21 -12 -1 -17 -2 -17 -6 0 -2 9 -14 17 -25 17
-14 0 -18 5 -14 15 3 8 -3 19 -12 25 -15 9 -15 10 6 16 12 3 22 11 22 16 0 5
5 6 10 3 6 -3 10 -1 10 4 0 15 7 14 28 -7z m-868 -7 c0 -8 -14 -17 -35 -21
-19 -3 -33 -9 -32 -13 2 -7 -7 -11 -24 -11 -5 0 -8 4 -4 9 3 5 1 12 -5 16 -6
4 -10 -6 -10 -25 0 -18 -4 -29 -10 -25 -5 3 -10 17 -10 30 0 13 -8 29 -17 34
-13 8 -3 9 38 5 34 -4 64 -2 75 4 26 15 34 15 34 -3z m752 -34 c-2 -12 3 -24
12 -27 26 -10 18 -27 -10 -20 -20 5 -24 3 -22 -10 4 -21 -32 -45 -39 -26 -4
11 -9 10 -22 -2 -15 -14 -17 -13 -16 7 1 13 5 28 9 35 4 8 1 12 -10 12 -14 0
-15 2 -3 17 10 11 10 14 2 9 -7 -4 -13 -3 -13 2 0 12 29 24 41 16 5 -3 9 -1 9
4 0 5 15 8 33 7 26 -2 31 -6 29 -24z m-135 4 c9 -10 12 -22 7 -33 -6 -15 -8
-14 -11 6 -3 12 -9 22 -14 22 -5 0 -9 5 -9 10 0 14 9 12 27 -5z m-27 -21 c0
-8 -4 -14 -10 -14 -5 0 -10 9 -10 21 0 11 5 17 10 14 6 -3 10 -13 10 -21z
m-530 2 c0 -17 -67 -86 -83 -86 -15 0 -43 18 -37 22 3 2 22 13 43 23 21 11 45
28 54 38 19 21 23 21 23 3z m524 -42 c9 -3 13 -10 10 -16 -3 -5 2 -16 12 -23
18 -14 17 -14 -7 -15 -31 0 -57 24 -38 35 8 6 7 10 -2 16 -16 10 1 12 25 3z
m251 -14 c3 -5 1 -10 -4 -10 -6 0 -11 5 -11 10 0 6 2 10 4 10 3 0 8 -4 11 -10z
m60 0 c3 -5 1 -10 -4 -10 -6 0 -11 5 -11 10 0 6 2 10 4 10 3 0 8 -4 11 -10z
m-25 -19 c0 -14 -18 -23 -31 -15 -8 4 -7 9 2 15 18 11 29 11 29 0z m29 -25
c-18 -18 -59 -30 -59 -18 0 9 63 42 69 36 3 -3 -2 -11 -10 -18z m-795 -1 c-4
-8 -10 -15 -14 -15 -4 0 -10 -9 -13 -20 -3 -11 -10 -20 -16 -20 -14 0 0 29 25
54 19 20 25 20 18 1z m656 4 c0 -4 -6 -10 -12 -12 -8 -3 -6 -6 4 -6 13 -1 17
-9 14 -36 -2 -34 17 -51 26 -23 3 9 6 9 11 1 8 -13 -52 -34 -93 -32 -15 1 -19
3 -8 6 21 5 32 33 14 33 -10 0 -12 7 -9 23 6 22 6 21 -16 -3 -22 -25 -22 -25
-11 -1 7 13 20 26 30 28 11 3 16 11 13 18 -3 9 2 13 16 12 12 -1 21 -4 21 -8z
m-135 -19 c11 -5 14 -9 7 -9 -7 -1 -10 -5 -7 -11 3 -6 -4 -10 -17 -9 -26 0
-71 17 -50 18 7 1 10 6 7 11 -7 12 32 12 60 0z m-571 -59 c3 -5 0 -11 -8 -14
-15 -6 -26 1 -26 15 0 11 27 10 34 -1z m746 -51 c-14 -4 -20 -9 -15 -10 22 -3
-33 -19 -70 -19 -29 -1 -36 2 -25 9 13 9 7 14 -12 11 -5 0 -8 4 -8 9 0 6 32
10 78 9 54 -1 69 -3 52 -9z m-111 -144 c-13 -65 -11 -122 3 -108 9 9 14 7 24
-6 15 -20 15 -20 35 73 l13 60 8 -40 c4 -22 10 -57 13 -78 5 -33 8 -36 25 -27
10 5 20 22 22 37 3 26 5 24 41 -32 20 -33 37 -54 37 -47 0 7 5 10 10 7 6 -4
10 -12 9 -18 -2 -7 2 -30 8 -52 6 -22 14 -57 18 -77 3 -21 10 -38 14 -38 10 0
-4 92 -19 120 -6 12 -10 24 -7 26 6 7 57 -100 58 -122 0 -11 3 -13 6 -6 8 20
18 14 40 -25 28 -52 36 -88 34 -161 -2 -43 1 -62 8 -57 6 3 11 0 11 -7 0 -10
2 -10 9 1 13 21 19 -55 8 -113 -5 -28 -19 -70 -32 -95 l-24 -46 4 37 c4 30 2
36 -10 32 -8 -4 -15 -1 -15 6 0 6 -6 8 -12 5 -7 -4 -4 1 7 11 20 16 20 16 -2
11 -13 -3 -24 1 -27 10 -3 8 -2 12 3 9 12 -8 9 47 -4 57 -6 5 -4 7 6 4 12 -4
20 8 32 46 9 28 15 53 13 55 -3 2 -21 -14 -40 -35 l-37 -38 7 37 c7 44 -3 69
-20 46 -21 -29 -81 -58 -116 -57 l-35 1 30 7 c48 12 75 30 75 51 0 13 -5 18
-15 14 -8 -4 -15 -10 -15 -15 0 -5 -7 -9 -16 -9 -11 0 -15 8 -13 28 3 30 -26
72 -51 72 -20 1 -55 30 -63 53 -6 17 -9 17 -29 2 -35 -24 -92 -37 -119 -26
-23 9 -23 10 6 11 37 1 77 30 82 59 2 15 -2 21 -15 21 -27 0 -64 43 -56 65 5
13 -5 9 -36 -14 -41 -30 -93 -41 -104 -22 -4 5 2 7 12 4 10 -2 29 5 43 16 32
26 17 55 -32 58 -38 3 -119 30 -134 46 -7 7 -3 8 10 3 78 -29 133 -14 197 52
43 43 107 152 109 184 0 7 4 4 8 -6 4 -11 4 -38 0 -60z m-89 -45 c0 -31 -44
-90 -57 -77 -4 4 -2 10 4 14 6 4 19 26 28 50 10 23 19 42 21 42 2 0 4 -13 4
-29z m443 -221 c8 0 7 -4 -1 -12 -9 -9 -16 -8 -30 6 -16 18 -16 19 1 12 10 -3
24 -6 30 -6z m-513 -124 c7 -20 18 -32 26 -29 28 11 -7 -200 -46 -278 -12 -22
-19 -43 -16 -46 10 -10 35 45 56 122 12 44 26 84 31 90 5 5 9 19 9 32 0 29 11
29 28 2 8 -12 10 -25 4 -32 -5 -7 -7 -73 -4 -147 8 -263 9 -244 -28 -297 -19
-27 -36 -50 -39 -53 -4 -3 -6 -14 -6 -25 0 -11 -6 -19 -12 -17 -19 3 -15 -26
5 -37 15 -9 15 -10 -5 -11 -12 0 -23 3 -25 8 -5 11 -80 44 -86 37 -3 -3 0 -11
6 -17 7 -7 12 -17 12 -22 0 -6 -10 4 -22 23 -12 19 -24 29 -26 23 -7 -21 -22
-13 -22 11 0 16 -3 18 -9 9 -8 -13 -26 -15 -78 -10 -29 3 -29 4 7 23 32 17 40
42 15 51 -8 4 -12 10 -9 16 3 5 -7 3 -24 -6 -16 -8 -32 -12 -36 -9 -3 4 -6 1
-6 -6 0 -7 -5 -9 -10 -6 -7 4 -9 -3 -5 -22 5 -26 5 -26 -5 -5 -5 13 -14 21
-20 17 -5 -3 -9 8 -8 29 1 31 4 35 34 38 19 2 40 0 48 -4 28 -15 24 7 -5 35
-16 14 -29 23 -29 19 0 -4 -9 -8 -20 -8 -23 0 -23 -1 -9 29 17 38 52 53 88 37
36 -14 51 -7 44 20 -5 19 -7 20 -29 5 -13 -8 -24 -11 -24 -5 0 15 38 50 55 50
9 0 28 9 43 20 15 10 40 22 56 24 16 3 34 10 40 16 7 7 10 71 8 193 -3 177 -3
181 15 164 11 -9 25 -32 33 -51z m127 -151 c8 -9 13 -19 9 -22 -7 -7 -36 16
-36 28 0 13 10 11 27 -6z m83 -95 c-5 -22 -8 -27 -9 -13 -1 21 9 56 14 51 2
-2 0 -19 -5 -38z m443 -77 c-1 -43 0 -50 5 -26 6 26 10 30 22 23 9 -6 10 -10
3 -10 -11 0 -11 -7 -3 -45 4 -20 0 -36 -8 -31 -5 3 -8 -14 -7 -38 2 -41 1 -42
-27 -38 -21 3 -27 1 -23 -10 8 -20 -36 -18 -59 4 -19 17 -19 19 8 78 15 33 32
87 38 120 11 56 12 58 31 45 17 -12 20 -25 20 -72z m-369 55 c-2 -7 -23 -26
-46 -43 -22 -16 -49 -48 -59 -70 -25 -55 -24 -28 2 40 17 47 25 57 50 62 16 3
32 10 35 14 8 14 24 11 18 -3z m61 -43 c17 -14 24 -25 17 -25 -17 0 -62 30
-62 41 0 15 13 10 45 -16z m395 1 c-1 -5 4 -12 12 -17 19 -12 15 -87 -8 -129
-13 -26 -19 -58 -20 -123 -1 -61 -7 -94 -18 -112 -18 -28 -69 -57 -94 -54 -9
1 -25 -1 -34 -6 -22 -9 -52 1 -43 15 4 6 1 9 -6 8 -7 -2 -15 6 -17 16 -3 14 0
17 12 13 11 -4 16 -1 16 10 0 9 8 26 17 37 10 12 3 8 -14 -8 l-32 -29 5 29 c6
31 30 64 48 64 6 0 20 8 31 17 16 12 16 14 3 10 -10 -3 -20 -2 -23 3 -4 6 -1
10 4 10 6 0 11 9 11 21 0 11 5 17 10 14 6 -4 8 -10 5 -15 -3 -4 2 -10 10 -14
8 -3 17 0 21 6 4 7 3 8 -4 4 -16 -10 -15 5 2 27 8 10 20 16 27 15 9 -2 13 5
12 19 -2 17 1 21 15 16 13 -4 13 -2 -3 10 -11 9 -15 17 -9 17 6 0 11 6 12 13
3 30 14 92 18 96 2 2 10 -2 19 -9 18 -15 19 -7 4 22 -8 15 -8 19 1 16 6 -2 11
-7 10 -12z m-403 -38 c18 -11 38 -16 44 -12 8 4 9 3 5 -4 -4 -7 -24 -12 -44
-12 -34 0 -35 -1 -16 -15 13 -10 14 -14 5 -15 -11 0 -11 -3 -1 -15 10 -13 10
-19 -4 -33 -9 -10 -13 -22 -9 -27 11 -11 -36 4 -79 26 -37 19 -54 45 -22 32
14 -5 15 -3 5 15 -7 13 -8 22 -2 22 5 0 12 -6 15 -12 3 -7 4 -2 3 12 -2 24 0
25 43 22 42 -3 44 -2 26 13 -11 8 -26 15 -33 15 -7 0 -13 5 -13 11 0 13 34 3
77 -23z m-82 -134 c28 -15 52 -31 53 -35 2 -5 8 -7 13 -3 16 10 9 -8 -8 -22
-15 -12 -16 -15 -4 -23 9 -6 22 -6 32 0 14 7 17 5 16 -10 0 -11 -5 -17 -9 -15
-4 3 -8 0 -8 -5 0 -6 7 -11 15 -11 8 0 19 -16 24 -37 16 -58 12 -72 -9 -28
-22 48 -25 28 -5 -37 16 -54 4 -75 -15 -25 -26 71 -29 74 -27 30 1 -24 8 -45
15 -48 18 -7 15 -37 -5 -33 -9 2 -22 21 -30 43 -7 22 -18 44 -23 49 -17 17 1
-57 18 -77 14 -16 14 -20 2 -27 -19 -12 -27 -6 -49 44 -21 49 -48 75 -36 35 4
-13 14 -28 21 -32 25 -15 16 -39 -13 -35 -58 7 -112 152 -68 184 13 9 13 13 3
17 -7 3 -3 6 9 6 17 1 21 -3 16 -16 -4 -11 -3 -14 5 -9 7 4 12 16 12 27 0 11
-4 17 -10 14 -5 -3 -11 -1 -11 4 -3 26 -4 30 -11 37 -4 4 -6 23 -4 43 2 20 1
28 -1 19 -2 -10 -9 -18 -14 -18 -6 0 -8 3 -6 8 2 4 7 15 11 26 6 17 8 17 29 2
12 -9 45 -28 72 -42z m-127 -79 c-13 -38 -25 -60 -26 -50 -2 9 3 34 11 54 9
20 18 45 21 55 4 10 9 17 11 14 3 -3 -5 -36 -17 -73z m-441 39 c-3 -3 -12 -4
-19 -1 -8 3 -5 6 6 6 11 1 17 -2 13 -5z m873 -44 c0 -5 -2 -10 -4 -10 -3 0 -8
5 -11 10 -3 6 -1 10 4 10 6 0 11 -4 11 -10z m-520 -115 c-7 -9 -15 -13 -17
-11 -7 7 7 26 19 26 6 0 6 -6 -2 -15z"/>
<path d="M1636 4974 c-3 -9 -6 -28 -5 -42 1 -26 1 -26 8 4 4 17 11 36 15 42 4
7 3 12 -2 12 -6 0 -13 -7 -16 -16z"/>
<path d="M1730 4980 c0 -5 5 -10 11 -10 5 0 7 5 4 10 -3 6 -8 10 -11 10 -2 0
-4 -4 -4 -10z"/>
<path d="M1755 4950 c-3 -5 1 -10 10 -10 9 0 13 5 10 10 -3 6 -8 10 -10 10 -2
0 -7 -4 -10 -10z"/>
<path d="M1733 4921 c1 -11 7 -23 14 -26 11 -4 11 0 2 18 -16 31 -18 32 -16 8z"/>
<path d="M1635 4841 c6 -21 5 -23 -15 -18 -17 4 -20 3 -12 -5 8 -8 5 -19 -10
-41 -12 -17 -17 -27 -10 -23 7 4 12 2 12 -4 0 -7 8 -9 19 -5 11 3 22 1 26 -5
3 -5 11 -10 18 -10 6 0 2 7 -10 15 -18 13 -20 20 -13 46 5 17 15 38 22 47 11
13 11 14 -1 8 -8 -5 -17 -3 -23 5 -6 10 -7 7 -3 -10z"/>
<path d="M2020 4829 c0 -5 5 -7 10 -4 6 3 10 8 10 11 0 2 -4 4 -10 4 -5 0 -10
-5 -10 -11z"/>
<path d="M1685 4769 c-4 -6 -5 -13 -2 -16 7 -7 27 6 27 18 0 12 -17 12 -25 -2z"/>
<path d="M1755 4730 c3 -5 8 -10 11 -10 2 0 4 5 4 10 0 6 -5 10 -11 10 -5 0
-7 -4 -4 -10z"/>
<path d="M1870 4722 c0 -12 -9 -23 -20 -27 -23 -7 -19 -20 9 -28 15 -4 18 -1
13 12 -5 14 -3 14 10 3 16 -13 34 -2 20 12 -4 4 -7 15 -7 23 0 9 -6 18 -12 20
-8 3 -13 -4 -13 -15z"/>
<path d="M1626 4721 c-4 -5 -2 -12 3 -15 5 -4 12 -2 15 3 4 5 2 12 -3 15 -5 4
-12 2 -15 -3z"/>
<path d="M1828 4718 c5 -5 16 -8 23 -6 8 3 3 7 -10 11 -17 4 -21 3 -13 -5z"/>
<path d="M1754 4695 c-17 -13 -16 -14 14 -4 33 11 41 19 19 19 -7 0 -22 -7
-33 -15z"/>
<path d="M1287 4675 c3 -8 9 -12 14 -9 12 7 11 11 -5 17 -10 4 -13 1 -9 -8z"/>
<path d="M1990 4681 c0 -7 -4 -9 -10 -6 -5 3 -10 1 -10 -4 0 -6 4 -11 9 -11
13 0 25 20 17 27 -3 4 -6 1 -6 -6z"/>
<path d="M1810 4652 c0 -6 -8 -13 -17 -15 -16 -4 -16 -5 -1 -6 18 -1 34 16 24
26 -3 4 -6 1 -6 -5z"/>
<path d="M2000 4646 c0 -9 30 -14 35 -6 4 6 -3 10 -14 10 -12 0 -21 -2 -21 -4z"/>
<path d="M1639 4568 c-1 -7 -1 -16 0 -20 0 -5 -6 -8 -14 -8 -8 0 -13 6 -11 13
1 6 1 9 -1 4 -3 -4 -9 -4 -14 -1 -6 3 -8 -5 -5 -20 3 -18 1 -23 -10 -19 -10 4
-12 0 -8 -11 3 -9 10 -16 14 -16 5 0 6 -10 3 -22 -7 -29 9 -13 25 25 10 23 10
27 0 22 -7 -4 -4 1 6 9 18 14 33 56 21 56 -3 0 -6 -6 -6 -12z"/>
<path d="M1931 4479 c-24 -23 -31 -39 -29 -63 2 -31 4 -32 42 -33 23 -1 33 1
24 4 -10 2 -18 9 -18 15 0 5 7 7 15 4 8 -3 21 -8 28 -11 19 -8 45 16 53 48 6
25 4 27 -26 27 -17 0 -29 -4 -26 -9 7 -11 -22 -23 -35 -15 -6 3 -18 0 -27 -7
-9 -7 -5 0 9 15 20 21 36 28 63 28 40 0 48 12 14 22 -41 11 -56 6 -87 -25z
m90 -62 c-10 -9 -11 -8 -5 6 3 10 9 15 12 12 3 -3 0 -11 -7 -18z"/>
<path d="M1750 4409 c-33 -13 -60 -39 -60 -57 0 -10 7 -7 23 10 15 16 40 29
65 33 23 4 42 11 42 16 0 12 -38 11 -70 -2z"/>
<path d="M1785 4374 c-11 -8 -25 -12 -31 -10 -7 3 -22 -7 -35 -20 -20 -21 -21
-26 -9 -34 37 -23 100 -3 100 31 0 15 5 19 15 16 19 -8 31 13 14 24 -19 12
-31 11 -54 -7z m-10 -54 c3 -5 -1 -10 -9 -10 -9 0 -16 5 -16 10 0 6 4 10 9 10
6 0 13 -4 16 -10z"/>
<path d="M1961 4261 c-12 -12 -33 -21 -47 -21 -14 0 -23 -4 -20 -8 9 -14 64
-1 82 19 24 27 10 35 -15 10z"/>
<path d="M1994 4231 c-21 -20 -47 -32 -78 -36 -60 -9 -55 -27 9 -31 56 -4 70
4 104 59 28 46 10 50 -35 8z m-8 -46 c-11 -8 -27 -15 -35 -15 -10 1 -7 6 9 15
33 19 50 18 26 0z"/>
<path d="M2126 4684 c-8 -21 -4 -25 14 -14 11 7 12 12 4 20 -8 8 -13 7 -18 -6z"/>
<path d="M1180 3940 c0 -13 6 -16 25 -12 28 5 26 17 -5 25 -14 4 -20 0 -20
-13z"/>
<path d="M1300 3918 c0 -11 28 -10 35 1 3 6 -4 9 -15 8 -11 -1 -20 -5 -20 -9z"/>
<path d="M1158 3903 c6 -2 18 -2 25 0 6 3 1 5 -13 5 -14 0 -19 -2 -12 -5z"/>
<path d="M2180 4040 c-9 -6 -10 -10 -3 -10 6 0 15 5 18 10 8 12 4 12 -15 0z"/>
<path d="M1597 3988 c11 -13 32 -36 46 -53 15 -16 27 -33 27 -37 0 -5 4 -8 9
-8 16 0 -11 43 -51 83 -40 40 -64 51 -31 15z"/>
<path d="M1860 3996 c0 -10 28 -13 41 -5 10 6 7 9 -13 9 -16 0 -28 -2 -28 -4z"/>
<path d="M1562 3960 c14 -19 27 -42 30 -50 3 -9 7 -10 11 -3 4 5 -10 28 -29
49 -36 39 -36 39 -12 4z"/>
<path d="M1506 3941 c-9 -14 1 -31 19 -31 8 0 21 -12 29 -27 11 -21 15 -23 16
-10 0 24 -55 83 -64 68z"/>
<path d="M2010 3910 c-8 -5 -10 -10 -5 -10 6 0 17 5 25 10 8 5 11 10 5 10 -5
0 -17 -5 -25 -10z"/>
<path d="M1860 3850 c0 -5 5 -10 11 -10 5 0 7 5 4 10 -3 6 -8 10 -11 10 -2 0
-4 -4 -4 -10z"/>
<path d="M1510 3840 c0 -5 5 -10 10 -10 6 0 10 5 10 10 0 6 -4 10 -10 10 -5 0
-10 -4 -10 -10z"/>
<path d="M1767 3824 c11 -18 19 -22 22 -13 2 7 -1 15 -8 17 -6 2 -9 8 -5 13 3
5 -2 9 -11 9 -14 0 -14 -3 2 -26z"/>
<path d="M2044 3818 c-3 -11 -3 -22 0 -25 3 -4 6 -1 6 6 0 7 5 9 12 5 7 -4 8
-3 4 4 -4 7 -2 12 3 12 6 0 11 4 11 8 0 17 -30 8 -36 -10z"/>
<path d="M1800 3814 c0 -8 5 -12 10 -9 6 4 8 11 5 16 -9 14 -15 11 -15 -7z"/>
<path d="M2012 3776 c-7 -16 -8 -26 -1 -26 12 0 22 25 17 41 -2 6 -9 0 -16
-15z"/>
<path d="M1361 3774 c0 -11 3 -14 6 -6 3 7 2 16 -1 19 -3 4 -6 -2 -5 -13z"/>
<path d="M1985 3780 c3 -5 8 -10 11 -10 2 0 4 5 4 10 0 6 -5 10 -11 10 -5 0
-7 -4 -4 -10z"/>
<path d="M2100 3778 c0 -4 4 -8 9 -8 6 0 12 4 15 8 3 5 -1 9 -9 9 -8 0 -15 -4
-15 -9z"/>
<path d="M1334 3716 c-11 -17 -26 -30 -32 -28 -7 1 -11 -1 -11 -5 5 -28 -4
-52 -18 -57 -11 -3 -8 -4 6 -3 19 2 32 15 54 55 32 59 33 86 1 38z"/>
<path d="M1551 3734 c0 -11 3 -14 6 -6 3 7 2 16 -1 19 -3 4 -6 -2 -5 -13z"/>
<path d="M1855 3730 c-8 -13 3 -30 18 -30 8 0 7 3 -2 9 -7 5 -10 14 -7 20 4 6
5 11 2 11 -3 0 -8 -4 -11 -10z"/>
<path d="M1897 3726 c-3 -7 0 -13 6 -13 7 0 23 -3 37 -8 28 -8 27 -6 -12 18
-20 13 -27 13 -31 3z"/>
<path d="M2063 3695 c0 -8 4 -15 9 -15 4 0 8 4 8 9 0 6 -4 12 -8 15 -5 3 -9
-1 -9 -9z"/>
<path d="M1795 3650 c3 -5 0 -10 -7 -11 -7 0 -2 -5 11 -10 13 -5 26 -7 29 -4
3 3 0 5 -6 5 -7 0 -12 7 -12 15 0 8 -5 15 -11 15 -5 0 -7 -4 -4 -10z"/>
<path d="M1839 3613 c-5 -33 -3 -61 4 -56 4 3 6 12 2 21 -3 8 -1 19 6 22 8 6
8 9 0 14 -6 4 -12 4 -12 -1z"/>
<path d="M1805 3600 c3 -5 8 -10 11 -10 2 0 4 5 4 10 0 6 -5 10 -11 10 -5 0
-7 -4 -4 -10z"/>
<path d="M1290 3579 c0 -16 -4 -19 -20 -14 -11 4 -20 2 -20 -4 0 -6 5 -12 10
-12 6 -1 16 -2 23 -3 6 -1 15 3 19 9 11 15 10 45 -2 45 -5 0 -10 -9 -10 -21z"/>
<path d="M2003 3585 c-3 -9 -3 -18 -1 -21 3 -3 8 4 11 16 6 23 -1 27 -10 5z"/>
<path d="M2235 3530 c3 -5 8 -10 11 -10 2 0 4 5 4 10 0 6 -5 10 -11 10 -5 0
-7 -4 -4 -10z"/>
<path d="M2282 3486 c-16 -8 -18 -15 -11 -28 6 -10 20 -18 31 -18 12 0 18 3
15 7 -4 3 -3 11 2 17 15 19 -12 35 -37 22z"/>
<path d="M1805 3280 c3 -5 8 -10 11 -10 2 0 4 5 4 10 0 6 -5 10 -11 10 -5 0
-7 -4 -4 -10z"/>
<path d="M1850 3250 c0 -5 5 -10 11 -10 5 0 7 5 4 10 -3 6 -8 10 -11 10 -2 0
-4 -4 -4 -10z"/>
<path d="M1820 3242 c0 -12 19 -26 26 -19 2 2 -2 10 -11 17 -9 8 -15 8 -15 2z"/>
<path d="M1936 3208 c5 -7 -2 -9 -19 -6 -19 4 -24 1 -20 -9 3 -8 12 -12 20 -9
8 3 23 6 34 6 25 0 24 16 -1 23 -12 3 -18 1 -14 -5z"/>
<path d="M1852 3188 c2 -6 10 -14 16 -16 7 -2 10 2 6 12 -7 18 -28 22 -22 4z"/>
<path d="M1940 3170 c0 -5 5 -10 11 -10 5 0 7 5 4 10 -3 6 -8 10 -11 10 -2 0
-4 -4 -4 -10z"/>
<path d="M1890 3059 c0 -5 5 -7 10 -4 6 3 10 8 10 11 0 2 -4 4 -10 4 -5 0 -10
-5 -10 -11z"/>
<path d="M2022 2958 c5 -15 28 -23 28 -10 0 5 -7 13 -16 16 -10 4 -14 1 -12
-6z"/>
<path d="M1885 2950 c-3 -5 -1 -10 4 -10 6 0 11 5 11 10 0 6 -2 10 -4 10 -3 0
-8 -4 -11 -10z"/>
<path d="M1760 2932 c0 -6 -8 -13 -17 -15 -16 -4 -16 -5 -1 -6 18 -1 34 16 24
26 -3 4 -6 1 -6 -5z"/>
<path d="M1960 2914 c0 -8 5 -12 10 -9 6 4 8 11 5 16 -9 14 -15 11 -15 -7z"/>
<path d="M1818 2913 c6 -2 18 -2 25 0 6 3 1 5 -13 5 -14 0 -19 -2 -12 -5z"/>
<path d="M1976 2715 c-3 -9 0 -15 9 -15 9 0 12 6 9 15 -4 8 -7 15 -9 15 -2 0
-5 -7 -9 -15z"/>
<path d="M1953 2608 c2 -7 10 -12 16 -10 6 1 11 -3 11 -10 0 -6 2 -9 5 -6 10
9 -7 38 -22 38 -8 0 -13 -6 -10 -12z"/>
<path d="M2547 3874 c7 -3 10 -11 7 -18 -3 -7 5 -24 16 -37 l21 -24 -5 35 c-6
33 -20 50 -41 49 -5 0 -5 -3 2 -5z"/>
<path d="M2228 3842 c-12 -5 -14 -12 -9 -21 7 -11 11 -9 20 8 7 11 10 21 9 20
-2 0 -11 -3 -20 -7z"/>
<path d="M2154 2779 c-5 -9 -2 -10 9 -6 9 3 18 2 21 -4 2 -5 3 -4 2 3 -3 17
-23 21 -32 7z"/>
<path d="M2205 2700 c3 -5 8 -10 11 -10 2 0 4 5 4 10 0 6 -5 10 -11 10 -5 0
-7 -4 -4 -10z"/>
<path d="M1793 2695 c0 -8 4 -12 9 -9 5 3 6 10 3 15 -9 13 -12 11 -12 -6z"/>
<path d="M1795 2580 c3 -5 8 -10 11 -10 2 0 4 5 4 10 0 6 -5 10 -11 10 -5 0
-7 -4 -4 -10z"/>
<path d="M1697 2539 c-9 -5 -22 -7 -27 -4 -6 3 -7 -1 -4 -9 4 -12 0 -16 -16
-16 -11 0 -18 5 -15 10 3 6 1 10 -4 10 -17 0 -13 -40 5 -47 8 -3 13 -11 10
-18 -2 -7 1 -12 7 -12 42 1 50 -3 37 -18 -7 -9 -19 -14 -25 -11 -8 3 -12 -5
-12 -20 0 -18 5 -24 21 -24 12 0 28 6 35 13 10 10 15 9 25 -5 7 -10 16 -15 20
-11 4 4 -3 15 -16 25 -13 10 -18 18 -12 18 14 0 10 70 -5 79 -6 4 -9 17 -6 29
2 12 3 22 2 22 -1 0 -10 -5 -20 -11z m11 -61 c-3 -7 -11 -13 -18 -13 -7 0 -15
6 -17 13 -3 7 4 12 17 12 13 0 20 -5 18 -12z"/>
<path d="M1815 2480 c-3 -5 -1 -10 4 -10 6 0 11 5 11 10 0 6 -2 10 -4 10 -3 0
-8 -4 -11 -10z"/>
<path d="M1852 2468 c-11 -15 -11 -68 1 -68 4 0 14 0 22 0 8 0 15 5 15 10 0 7
-7 7 -22 0 -22 -11 -22 -11 1 8 20 16 22 22 12 40 -14 26 -15 26 -29 10z m18
-18 c0 -5 -5 -10 -11 -10 -5 0 -7 5 -4 10 3 6 8 10 11 10 2 0 4 -4 4 -10z"/>
<path d="M1900 2438 c0 -9 5 -20 11 -23 17 -11 20 0 4 21 -13 17 -14 17 -15 2z"/>
<path d="M1940 2417 c0 -9 -7 -17 -15 -17 -8 0 -15 -5 -15 -11 0 -6 9 -8 20
-4 14 5 20 2 20 -9 0 -27 2 -30 22 -44 10 -8 26 -11 36 -7 13 5 14 8 3 14 -7
5 -9 11 -5 14 12 7 28 -13 32 -38 4 -22 25 -40 30 -25 2 6 8 10 13 10 6 0 6
-7 0 -19 -9 -16 -8 -18 9 -14 24 6 24 4 3 48 -9 20 -22 34 -28 32 -14 -6 -33
15 -27 31 2 6 -1 12 -8 12 -6 0 -8 -4 -5 -10 3 -5 -1 -10 -9 -10 -9 0 -16 7
-16 15 0 8 -5 15 -10 15 -7 0 -9 -14 -5 -37 6 -37 5 -37 -14 11 -23 55 -31 67
-31 43z"/>
<path d="M1823 2381 c1 -5 -7 -17 -18 -25 l-20 -16 20 7 c29 10 48 43 25 43
-5 0 -9 -4 -7 -9z"/>
<path d="M2010 2310 c0 -5 5 -10 10 -10 6 0 10 5 10 10 0 6 -4 10 -10 10 -5 0
-10 -4 -10 -10z"/>
<path d="M1730 2290 c0 -5 5 -10 10 -10 6 0 10 5 10 10 0 6 -4 10 -10 10 -5 0
-10 -4 -10 -10z"/>
<path d="M1713 2249 c0 -25 2 -26 13 -11 17 22 17 29 1 35 -10 4 -14 -4 -14
-24z"/>
<path d="M2217 2565 c-9 -9 -19 -16 -22 -15 -17 1 -18 -1 -5 -10 22 -14 28
-12 40 11 15 27 7 35 -13 14z"/>
<path d="M2241 2424 c0 -11 3 -14 6 -6 3 7 2 16 -1 19 -3 4 -6 -2 -5 -13z"/>
<path d="M2369 2308 c-7 -24 -5 -36 5 -32 14 5 17 34 4 34 -4 0 -8 -1 -9 -2z"/>
<path d="M2085 2160 c3 -5 8 -10 11 -10 2 0 4 5 4 10 0 6 -5 10 -11 10 -5 0
-7 -4 -4 -10z"/>
<path d="M1950 2100 c0 -5 5 -10 11 -10 5 0 7 5 4 10 -3 6 -8 10 -11 10 -2 0
-4 -4 -4 -10z"/>
<path d="M1802 1305 c0 -16 2 -22 5 -12 2 9 2 23 0 30 -3 6 -5 -1 -5 -18z"/>
<path d="M1841 1055 c-7 -44 -15 -90 -17 -103 -3 -12 -13 -44 -23 -70 -10 -26
-20 -51 -21 -57 -7 -29 -80 -89 -80 -66 0 7 -4 10 -10 6 -5 -3 -6 -13 -3 -21
4 -11 0 -15 -12 -12 -10 2 -20 -2 -22 -7 -2 -6 6 -11 17 -12 11 -1 20 2 20 7
0 4 20 18 44 30 57 27 69 42 82 104 6 28 19 86 28 128 10 42 16 94 14 115 -2
31 -5 24 -17 -42z"/>
<path d="M1680 840 c-14 -11 -20 -20 -14 -20 6 0 19 9 29 20 23 25 17 25 -15
0z"/>
<path d="M2430 700 c-6 -11 -7 -20 -2 -20 6 0 12 9 15 20 3 11 3 20 1 20 -2 0
-8 -9 -14 -20z"/>
<path d="M2354 679 c-3 -6 -1 -16 5 -22 8 -8 11 -5 11 11 0 24 -5 28 -16 11z"/>
<path d="M2071 802 c-9 -17 -7 -19 15 -14 14 2 22 8 17 11 -4 3 -11 10 -15 14
-3 5 -11 0 -17 -11z"/>
<path d="M2010 795 c0 -8 4 -15 10 -15 5 0 7 7 4 15 -4 8 -8 15 -10 15 -2 0
-4 -7 -4 -15z"/>
</g>
</svg>
